<?xml version="1.0" encoding="utf-8"?>
<!-- Generator: Adobe Illustrator 25.3.1, SVG Export Plug-In . SVG Version: 6.00 Build 0)  -->
<svg version="1.1" id="Layer_1" xmlns="http://www.w3.org/2000/svg" xmlns:xlink="http://www.w3.org/1999/xlink" x="0px" y="0px"
	 viewBox="0 0 24 24" style="enable-background:new 0 0 24 24;" xml:space="preserve">
<style type="text/css">
	.st0{fill:none;stroke:#000000;stroke-width:2;stroke-linecap:square;}
	.st1{fill:none;stroke:#000000;stroke-width:2;}
	.st2{fill:none;stroke:#000000;stroke-width:2;stroke-linecap:round;stroke-linejoin:round;}
</style>
<path class="st0" d="M1.7,19h7.6c1.9,0,3.5-1.6,3.5-3.5S11.2,12,9.2,12h-7h6.7c1.9,0,3.5-1.6,3.5-3.5S10.8,5,8.9,5H1.7V19"/>
<path class="st1" d="M15.9,14.4l6.4-0.1c0,0,0-3.9-3.2-3.9c-3,0-3.8,2.2-3.8,4.2s0.9,3.7,3.8,3.7c3.1,0,3-2.3,3-2.3"/>
<path class="st2" d="M29.9,7.9"/>
<line class="st2" x1="16.4" y1="7.2" x2="21.2" y2="7.2"/>
</svg>
